<?xml version="1.0" encoding="utf-8"?>
<!-- Generator: Adobe Illustrator 25.3.1, SVG Export Plug-In . SVG Version: 6.00 Build 0)  -->
<svg version="1.1" id="레이어_1" xmlns="http://www.w3.org/2000/svg" xmlns:xlink="http://www.w3.org/1999/xlink" x="0px"
	 y="0px" viewBox="0 0 276.74 37.19" style="enable-background:new 0 0 276.74 37.19;" xml:space="preserve">
<style type="text/css">
	.st0{fill:#003686;}
	.st1{fill:#00A0E9;}
</style>
<g>
	<g>
		<path class="st0" d="M127.17,27.65h0.7v2.36h1.94v-2.36h0.7v5.54h-0.7v-2.57h-1.94v2.57h-0.7V27.65z"/>
		<path class="st0" d="M134.45,32.32c0,0.29,0.02,0.59,0.03,0.87h-0.64l-0.02-0.6h-0.02c-0.21,0.46-0.55,0.66-1.02,0.66
			c-0.71,0-1.18-0.41-1.18-1.29v-2.81h0.67v2.61c0,0.64,0.24,0.92,0.67,0.92c0.52,0,0.86-0.37,0.86-1.09v-2.44h0.67V32.32z"/>
		<path class="st0" d="M135.42,30.02c0-0.29-0.02-0.59-0.03-0.87h0.64l0.02,0.6h0.02c0.21-0.46,0.56-0.66,1-0.66
			c0.43,0,0.75,0.22,0.95,0.63c0.21-0.4,0.52-0.63,0.98-0.63c0.7,0,1.17,0.4,1.17,1.29v2.81h-0.67v-2.78c0-0.52-0.22-0.75-0.62-0.75
			c-0.49,0-0.76,0.3-0.76,1.03v2.5h-0.67v-2.78c0-0.52-0.22-0.75-0.62-0.75c-0.49,0-0.76,0.3-0.76,1.03v2.5h-0.67V30.02z"/>
		<path class="st0" d="M141.3,29.42c0.33-0.21,0.75-0.33,1.14-0.33c0.6,0,0.95,0.25,1.08,0.38c0.17,0.17,0.35,0.42,0.35,0.99v2.11
			c0,0.24,0.02,0.48,0.03,0.62h-0.6l-0.04-0.55h-0.02c-0.18,0.31-0.52,0.6-1.13,0.6c-0.67,0-1.17-0.39-1.17-1.17
			c0-0.79,0.52-1.36,1.9-1.36h0.39v-0.18c0-0.3-0.02-0.48-0.15-0.65c-0.13-0.18-0.4-0.25-0.67-0.25c-0.41,0-0.81,0.17-1.04,0.42
			L141.3,29.42z M143.24,31.21c-0.12-0.02-0.29-0.02-0.47-0.02c-0.79,0-1.16,0.37-1.16,0.84c0,0.43,0.22,0.71,0.68,0.71
			c0.58,0,0.94-0.47,0.94-1.02V31.21z"/>
		<path class="st0" d="M144.82,30.02c0-0.29-0.02-0.59-0.03-0.87h0.64l0.02,0.6h0.02c0.21-0.46,0.56-0.66,1.02-0.66
			c0.71,0,1.18,0.4,1.18,1.29v2.81h-0.67v-2.61c0-0.64-0.24-0.92-0.67-0.92c-0.52,0-0.86,0.36-0.86,1.09v2.44h-0.67V30.02z"/>
		<path class="st0" d="M150.67,27.65h1.42c0.59,0,0.91,0.14,1.17,0.38c0.29,0.27,0.41,0.65,0.41,1.06c0,0.59-0.28,1.15-1.09,1.33
			v0.02c0.33,0.06,0.49,0.22,0.6,0.54l0.78,2.22h-0.75l-0.63-1.87c-0.16-0.46-0.36-0.63-0.88-0.63h-0.32v2.51h-0.7V27.65z
			 M151.37,30.11h0.54c0.75,0,1.03-0.49,1.03-0.98c0-0.62-0.4-0.91-1.02-0.91h-0.55V30.11z"/>
		<path class="st0" d="M155.16,31.36c0,0.94,0.37,1.37,1.1,1.37c0.33,0,0.7-0.17,0.93-0.33l0.03,0.6c-0.32,0.15-0.73,0.24-1.13,0.24
			c-1.07,0-1.63-0.81-1.63-2.08c0-1.27,0.55-2.08,1.56-2.08c0.91,0,1.42,0.73,1.42,1.92v0.36H155.16z M156.78,30.86
			c0-0.84-0.26-1.26-0.79-1.26c-0.43,0-0.81,0.32-0.83,1.26H156.78z"/>
		<path class="st0" d="M158.01,32.4c0.3,0.18,0.62,0.3,0.95,0.3c0.51,0,0.77-0.26,0.77-0.57c0-0.28-0.14-0.47-0.52-0.63l-0.44-0.2
			c-0.58-0.26-0.79-0.52-0.79-1.04c0-0.67,0.52-1.17,1.3-1.17c0.33,0,0.63,0.06,0.86,0.14l-0.03,0.57
			c-0.21-0.09-0.49-0.17-0.79-0.17c-0.44,0-0.67,0.24-0.67,0.56c0,0.33,0.24,0.51,0.68,0.68l0.24,0.1c0.49,0.2,0.8,0.53,0.8,1.03
			c0,0.7-0.37,1.25-1.3,1.25c-0.42,0-0.8-0.09-1.09-0.24L158.01,32.4z"/>
		<path class="st0" d="M162.54,29.09c1.07,0,1.63,0.81,1.63,2.08c0,1.27-0.56,2.08-1.63,2.08s-1.63-0.81-1.63-2.08
			C160.92,29.9,161.47,29.09,162.54,29.09z M162.54,32.71c0.63,0,0.93-0.52,0.93-1.54c0-1.02-0.29-1.54-0.93-1.54
			s-0.93,0.52-0.93,1.54C161.62,32.18,161.91,32.71,162.54,32.71z"/>
		<path class="st0" d="M167.79,32.32c0,0.29,0.02,0.59,0.03,0.87h-0.64l-0.02-0.6h-0.02c-0.21,0.46-0.55,0.66-1.02,0.66
			c-0.71,0-1.18-0.41-1.18-1.29v-2.81h0.67v2.61c0,0.64,0.24,0.92,0.67,0.92c0.52,0,0.86-0.37,0.86-1.09v-2.44h0.67V32.32z"/>
		<path class="st0" d="M168.76,30.02c0-0.29-0.02-0.59-0.03-0.87h0.64l0.02,0.63h0.02c0.21-0.49,0.56-0.69,1.15-0.69v0.66
			c-0.08-0.02-0.17-0.02-0.25-0.02c-0.52,0-0.88,0.44-0.88,1.33v2.14h-0.67V30.02z"/>
		<path class="st0" d="M173.49,29.85c-0.23-0.13-0.46-0.19-0.77-0.19c-0.65,0-1.11,0.45-1.11,1.55c0,0.94,0.44,1.47,1.09,1.47
			c0.32,0,0.59-0.09,0.82-0.21l0.03,0.61c-0.2,0.09-0.56,0.18-0.85,0.18c-1.21,0-1.79-0.9-1.79-2.04c0-1.31,0.68-2.12,1.81-2.12
			c0.28,0,0.59,0.06,0.8,0.16L173.49,29.85z"/>
		<path class="st0" d="M174.69,31.36c0,0.94,0.37,1.37,1.1,1.37c0.33,0,0.7-0.17,0.93-0.33l0.03,0.6c-0.32,0.15-0.73,0.24-1.13,0.24
			c-1.07,0-1.63-0.81-1.63-2.08c0-1.27,0.55-2.08,1.56-2.08c0.91,0,1.42,0.73,1.42,1.92v0.36H174.69z M176.31,30.86
			c0-0.84-0.26-1.26-0.79-1.26c-0.43,0-0.81,0.32-0.83,1.26H176.31z"/>
		<path class="st0" d="M177.54,32.4c0.3,0.18,0.62,0.3,0.95,0.3c0.51,0,0.77-0.26,0.77-0.57c0-0.28-0.14-0.47-0.52-0.63l-0.44-0.2
			c-0.58-0.26-0.79-0.52-0.79-1.04c0-0.67,0.52-1.17,1.3-1.17c0.33,0,0.63,0.06,0.86,0.14l-0.03,0.57
			c-0.21-0.09-0.49-0.17-0.79-0.17c-0.44,0-0.67,0.24-0.67,0.56c0,0.33,0.24,0.51,0.68,0.68l0.24,0.1c0.49,0.2,0.8,0.53,0.8,1.03
			c0,0.7-0.37,1.25-1.3,1.25c-0.42,0-0.8-0.09-1.09-0.24L177.54,32.4z"/>
		<path class="st0" d="M182.6,27.65h1.21c0.74,0,1.16,0.17,1.48,0.4c0.49,0.34,1.02,1.04,1.02,2.29c0,1.6-0.76,2.86-2.84,2.86h-0.87
			V27.65z M183.3,32.59h0.42c1.22,0,1.86-0.83,1.86-2.25c0-1.16-0.49-2.08-1.86-2.08h-0.42V32.59z"/>
		<path class="st0" d="M187.61,31.36c0,0.94,0.37,1.37,1.1,1.37c0.33,0,0.7-0.17,0.93-0.33l0.03,0.6c-0.32,0.15-0.73,0.24-1.13,0.24
			c-1.07,0-1.63-0.81-1.63-2.08c0-1.27,0.55-2.08,1.56-2.08c0.91,0,1.42,0.73,1.42,1.92v0.36H187.61z M189.22,30.86
			c0-0.84-0.26-1.26-0.79-1.26c-0.43,0-0.81,0.32-0.83,1.26H189.22z"/>
		<path class="st0" d="M190.21,29.14h0.73l0.89,3.38h0.02l0.9-3.38h0.7l-1.21,4.05h-0.79L190.21,29.14z"/>
		<path class="st0" d="M194.51,31.36c0,0.94,0.37,1.37,1.1,1.37c0.33,0,0.7-0.17,0.93-0.33l0.03,0.6c-0.32,0.15-0.73,0.24-1.13,0.24
			c-1.07,0-1.63-0.81-1.63-2.08c0-1.27,0.55-2.08,1.56-2.08c0.91,0,1.42,0.73,1.42,1.92v0.36H194.51z M196.12,30.86
			c0-0.84-0.26-1.26-0.79-1.26c-0.43,0-0.81,0.32-0.83,1.26H196.12z"/>
		<path class="st0" d="M197.59,27.24h0.67v5.95h-0.67V27.24z"/>
		<path class="st0" d="M200.72,29.09c1.07,0,1.63,0.81,1.63,2.08c0,1.27-0.56,2.08-1.63,2.08c-1.07,0-1.63-0.81-1.63-2.08
			C199.09,29.9,199.65,29.09,200.72,29.09z M200.72,32.71c0.63,0,0.93-0.52,0.93-1.54c0-1.02-0.29-1.54-0.93-1.54
			c-0.63,0-0.93,0.52-0.93,1.54C199.79,32.18,200.08,32.71,200.72,32.71z"/>
		<path class="st0" d="M203.05,29.89c0-0.25-0.02-0.5-0.03-0.75h0.64l0.02,0.59h0.02c0.17-0.32,0.48-0.65,1.06-0.65
			c0.83,0,1.4,0.68,1.4,2.08c0,1.4-0.56,2.08-1.4,2.08c-0.46,0-0.76-0.18-1.03-0.61h-0.02v2.27h-0.67V29.89z M204.6,32.71
			c0.61,0,0.89-0.52,0.89-1.54c0-1.02-0.28-1.54-0.89-1.54c-0.61,0-0.89,0.52-0.89,1.54C203.71,32.18,203.99,32.71,204.6,32.71z"/>
		<path class="st0" d="M206.93,30.02c0-0.29-0.02-0.59-0.03-0.87h0.64l0.02,0.6h0.02c0.21-0.46,0.56-0.66,1-0.66
			c0.43,0,0.75,0.22,0.95,0.63c0.21-0.4,0.52-0.63,0.98-0.63c0.7,0,1.17,0.4,1.17,1.29v2.81h-0.67v-2.78c0-0.52-0.22-0.75-0.62-0.75
			c-0.49,0-0.76,0.3-0.76,1.03v2.5h-0.67v-2.78c0-0.52-0.22-0.75-0.62-0.75c-0.49,0-0.76,0.3-0.76,1.03v2.5h-0.67V30.02z"/>
		<path class="st0" d="M213.15,31.36c0,0.94,0.37,1.37,1.1,1.37c0.33,0,0.7-0.17,0.93-0.33l0.03,0.6c-0.32,0.15-0.73,0.24-1.13,0.24
			c-1.07,0-1.63-0.81-1.63-2.08c0-1.27,0.55-2.08,1.56-2.08c0.91,0,1.42,0.73,1.42,1.92v0.36H213.15z M214.77,30.86
			c0-0.84-0.26-1.26-0.79-1.26c-0.43,0-0.81,0.32-0.83,1.26H214.77z"/>
		<path class="st0" d="M216.17,30.02c0-0.29-0.02-0.59-0.03-0.87h0.64l0.02,0.6h0.02c0.21-0.46,0.56-0.66,1.02-0.66
			c0.71,0,1.18,0.4,1.18,1.29v2.81h-0.67v-2.61c0-0.64-0.24-0.92-0.67-0.92c-0.52,0-0.86,0.36-0.86,1.09v2.44h-0.67V30.02z"/>
		<path class="st0" d="M221.78,33.14c-0.16,0.05-0.38,0.1-0.56,0.1c-0.61,0-0.94-0.25-0.94-0.96v-2.6h-0.64v-0.54h0.64v-0.83
			l0.67-0.2v1.02h0.83v0.54h-0.83v2.39c0,0.46,0.12,0.63,0.42,0.63c0.17,0,0.29-0.05,0.41-0.1V33.14z"/>
		<path class="st0" d="M226.66,28.45c-0.26-0.16-0.6-0.25-0.94-0.25c-0.52,0-0.87,0.36-0.87,0.83c0,0.36,0.14,0.58,0.94,1.04
			c0.86,0.49,1.14,0.98,1.14,1.61c0,0.88-0.55,1.57-1.61,1.57c-0.45,0-0.87-0.1-1.16-0.24v-0.72c0.32,0.19,0.73,0.36,1.06,0.36
			c0.63,0,0.98-0.42,0.98-0.87c0-0.43-0.11-0.67-0.86-1.13c-1-0.6-1.22-0.94-1.22-1.66c0-0.91,0.7-1.39,1.54-1.39
			c0.37,0,0.75,0.08,1,0.18V28.45z"/>
		<path class="st0" d="M228.27,31.36c0,0.94,0.37,1.37,1.1,1.37c0.33,0,0.7-0.17,0.93-0.33l0.03,0.6c-0.32,0.15-0.73,0.24-1.13,0.24
			c-1.07,0-1.63-0.81-1.63-2.08c0-1.27,0.55-2.08,1.56-2.08c0.91,0,1.42,0.73,1.42,1.92v0.36H228.27z M229.89,30.86
			c0-0.84-0.26-1.26-0.79-1.26c-0.43,0-0.81,0.32-0.83,1.26H229.89z"/>
		<path class="st0" d="M231.29,30.02c0-0.29-0.02-0.59-0.03-0.87h0.64l0.02,0.63h0.02c0.21-0.49,0.56-0.69,1.15-0.69v0.66
			c-0.08-0.02-0.17-0.02-0.25-0.02c-0.52,0-0.88,0.44-0.88,1.33v2.14h-0.67V30.02z"/>
		<path class="st0" d="M233.23,29.14h0.73l0.89,3.38h0.02l0.9-3.38h0.7l-1.21,4.05h-0.79L233.23,29.14z"/>
		<path class="st0" d="M237.78,27.48v0.79h-0.73v-0.79H237.78z M237.08,29.14h0.67v4.05h-0.67V29.14z"/>
		<path class="st0" d="M241.16,29.85c-0.23-0.13-0.46-0.19-0.77-0.19c-0.65,0-1.11,0.45-1.11,1.55c0,0.94,0.44,1.47,1.09,1.47
			c0.32,0,0.59-0.09,0.82-0.21l0.03,0.61c-0.2,0.09-0.56,0.18-0.85,0.18c-1.21,0-1.79-0.9-1.79-2.04c0-1.31,0.68-2.12,1.81-2.12
			c0.28,0,0.59,0.06,0.8,0.16L241.16,29.85z"/>
		<path class="st0" d="M242.36,31.36c0,0.94,0.37,1.37,1.1,1.37c0.33,0,0.7-0.17,0.93-0.33l0.03,0.6c-0.32,0.15-0.73,0.24-1.13,0.24
			c-1.07,0-1.63-0.81-1.63-2.08c0-1.27,0.55-2.08,1.56-2.08c0.91,0,1.42,0.73,1.42,1.92v0.36H242.36z M243.98,30.86
			c0-0.84-0.26-1.26-0.79-1.26c-0.43,0-0.81,0.32-0.83,1.26H243.98z"/>
		<path class="st0" d="M248.72,29.09c1.07,0,1.63,0.81,1.63,2.08c0,1.27-0.56,2.08-1.63,2.08c-1.07,0-1.63-0.81-1.63-2.08
			C247.09,29.9,247.65,29.09,248.72,29.09z M248.72,32.71c0.63,0,0.93-0.52,0.93-1.54c0-1.02-0.29-1.54-0.93-1.54
			c-0.63,0-0.93,0.52-0.93,1.54C247.79,32.18,248.08,32.71,248.72,32.71z"/>
		<path class="st0" d="M251.4,29.68h-0.64v-0.54h0.64v-0.91c0-0.66,0.3-1.09,1.01-1.09c0.18,0,0.37,0.02,0.52,0.06v0.57
			c-0.08-0.06-0.22-0.09-0.38-0.09c-0.37,0-0.48,0.21-0.48,0.61v0.85h0.73v0.54h-0.73v3.51h-0.67V29.68z"/>
		<path class="st0" d="M255.27,27.65h0.7v2.4h0.02l1.83-2.4h0.83l-2.08,2.62l2.25,2.92h-0.9l-1.94-2.68h-0.02v2.68h-0.7V27.65z"/>
		<path class="st0" d="M260.47,29.09c1.07,0,1.63,0.81,1.63,2.08c0,1.27-0.56,2.08-1.63,2.08s-1.63-0.81-1.63-2.08
			C258.85,29.9,259.4,29.09,260.47,29.09z M260.47,32.71c0.63,0,0.93-0.52,0.93-1.54c0-1.02-0.29-1.54-0.93-1.54
			s-0.93,0.52-0.93,1.54C259.54,32.18,259.84,32.71,260.47,32.71z"/>
		<path class="st0" d="M262.87,30.02c0-0.29-0.02-0.59-0.03-0.87h0.64l0.02,0.63h0.02c0.21-0.49,0.56-0.69,1.15-0.69v0.66
			c-0.08-0.02-0.17-0.02-0.25-0.02c-0.52,0-0.88,0.44-0.88,1.33v2.14h-0.67V30.02z"/>
		<path class="st0" d="M265.71,31.36c0,0.94,0.37,1.37,1.1,1.37c0.33,0,0.7-0.17,0.93-0.33l0.03,0.6c-0.32,0.15-0.73,0.24-1.13,0.24
			c-1.07,0-1.63-0.81-1.63-2.08c0-1.27,0.55-2.08,1.56-2.08c0.91,0,1.42,0.73,1.42,1.92v0.36H265.71z M267.33,30.86
			c0-0.84-0.26-1.26-0.79-1.26c-0.43,0-0.81,0.32-0.83,1.26H267.33z"/>
		<path class="st0" d="M268.9,29.42c0.33-0.21,0.75-0.33,1.14-0.33c0.59,0,0.95,0.25,1.08,0.38c0.17,0.17,0.35,0.42,0.35,0.99v2.11
			c0,0.24,0.02,0.48,0.03,0.62h-0.6l-0.04-0.55h-0.02c-0.18,0.31-0.52,0.6-1.13,0.6c-0.67,0-1.17-0.39-1.17-1.17
			c0-0.79,0.52-1.36,1.9-1.36h0.39v-0.18c0-0.3-0.02-0.48-0.15-0.65c-0.13-0.18-0.4-0.25-0.67-0.25c-0.41,0-0.81,0.17-1.04,0.42
			L268.9,29.42z M270.83,31.21c-0.12-0.02-0.29-0.02-0.47-0.02c-0.79,0-1.16,0.37-1.16,0.84c0,0.43,0.22,0.71,0.68,0.71
			c0.58,0,0.94-0.47,0.94-1.02V31.21z"/>
	</g>
	<g>
		<g>
			<path class="st0" d="M118.27,5.47h-6.66c-1.36,0-2.4,0.66-3.29,1.56L97.28,17.85c-0.82,0.82-0.82,2.13,0,2.95l11.05,10.82
				c0.89,0.89,1.92,1.56,3.29,1.56h6.66l-14.26-13.86L118.27,5.47z"/>
			<path class="st0" d="M93.69,5.47h-3.96v27.71h6.05V7.56C95.78,6.39,94.86,5.47,93.69,5.47z"/>
		</g>
		<g>
			<path class="st1" d="M24.33,5.47c-2.04,0-3.69,1.66-3.69,3.69c0,2.04,1.65,3.69,3.69,3.69c2.04,0,3.69-1.65,3.69-3.69
				C28.02,7.13,26.37,5.47,24.33,5.47z"/>
			<path class="st1" d="M7.79,5.47H3.88v27.71h6V7.56C9.88,6.39,8.96,5.47,7.79,5.47z"/>
			<path class="st1" d="M25.47,15.86H12.69v3.91c0,1.17,0.92,2.08,2.08,2.08h6.79v9.24c0,1.17,0.92,2.09,2.09,2.09h3.91V17.94
				C27.55,16.78,26.63,15.86,25.47,15.86z"/>
			<path class="st1" d="M63.71,12.85c2.04,0,3.69-1.65,3.69-3.69c0-2.03-1.65-3.69-3.69-3.69c-2.04,0-3.69,1.66-3.69,3.69
				C60.02,11.2,61.67,12.85,63.71,12.85z"/>
			<path class="st1" d="M71.82,5.47h-2.4v3.89c0,1.17,0.92,2.09,2.08,2.09l0.32,0c4.2,0,7.62,3.94,7.62,8.14
				c0,4.2-3.42,7.62-7.62,7.62h-5.34v-8.77c0-1.16-0.92-2.09-2.09-2.09h-3.91v16.83h11.34c7.49,0,13.59-6.1,13.59-13.59
				C85.41,12.09,79.32,5.47,71.82,5.47z"/>
			<path class="st1" d="M55.65,15.01v-0.08c0-2.57-0.82-5.18-2.34-6.7c-1.79-1.79-4.47-2.76-7.94-2.76H32.92v27.71h6v-22.3h5.96
				c2.92,0,4.71,1.79,4.71,4.36v0.08c0,2.3-1.67,3.86-4.59,3.86l-3.95,0c-0.43,0-0.78,0.35-0.78,0.78c0,0.19,0.07,0.38,0.18,0.51
				l9.09,11.16c0.7,0.89,1.6,1.56,2.96,1.56h6.26L50.2,23.3C53.51,21.94,55.65,19.29,55.65,15.01z"/>
		</g>
	</g>
	<g>
		<polygon class="st0" points="178.36,5.47 175.62,5.47 175.62,19.27 178.36,19.27 178.36,11.69 180.98,11.69 180.98,9.98 
			178.36,9.98 		"/>
		<path class="st0" d="M195.35,18.38h-6.88v-2.03h-2.74v5.13c0,1.35,1.1,2.45,2.45,2.45h9.91v-7.58h-2.74V18.38z M195.35,22.22h-6
			c-0.49,0-0.88-0.39-0.88-0.88v-1.26h6.88V22.22z"/>
		<path class="st0" d="M168.74,21.34v-4.18H166v4.32c0,1.35,1.09,2.45,2.45,2.45h10.32v-1.7h-9.15
			C169.14,22.22,168.74,21.83,168.74,21.34z"/>
		<rect x="214.06" y="5.47" class="st0" width="2.74" height="13.8"/>
		<polygon class="st0" points="232.79,7.49 230.19,7.49 230.19,9.19 232.79,9.19 232.79,10.68 230.19,10.68 230.19,12.38 
			232.79,12.38 232.79,15.91 235.53,15.91 235.53,5.47 232.79,5.47 		"/>
		<path class="st0" d="M207.18,21.34v-4.18h-2.74v4.32c0,1.35,1.1,2.45,2.45,2.45h10.03v-1.7h-8.86
			C207.58,22.22,207.18,21.83,207.18,21.34z"/>
		<path class="st0" d="M168.72,12.21c1.01,1.33,2.66,2.57,5.04,3.1v-1.71c-3.85-1.08-3.67-4.97-3.67-5.14V5.95h0h-2.73h0l0,2.51
			c0,0.16,0.18,4.06-3.67,5.14v1.71C166.06,14.77,167.71,13.54,168.72,12.21z"/>
		<path class="st0" d="M253.49,10.27V8.15c-0.01-1.35-1.1-2.45-2.45-2.45h-10.3v1.7h9.13c0.48,0,0.88,0.39,0.89,0.88v1.99
			c0,0.41-0.04,2.05-0.76,2.87h-3.21V9.6h-2.74v3.54h-5.51v1.7h17.12v-1.7h-2.93C253.44,12.32,253.49,10.68,253.49,10.27z"/>
		<path class="st0" d="M231.2,15.1v-1.7c-0.65,0.36-2.72,0.37-2.72,0.37l-4.19,0c-0.48,0-0.88-0.39-0.88-0.88v-1.44h5.75l0-3.72
			c0-0.98-0.8-1.78-1.78-1.78h-6.71v1.7h5.12c0.35,0.01,0.62,0.29,0.62,0.64l0,1.45h-5.75v3.28c0,1.35,1.09,2.45,2.45,2.45h5.36
			C228.49,15.47,230.56,15.46,231.2,15.1z"/>
		<path class="st0" d="M159.7,9.59V8.15c0-1.35-1.1-2.45-2.45-2.45h-10.42v1.7l9.25,0c0.49,0,0.88,0.4,0.88,0.88v1.31
			c0,0.39-0.04,1.93-0.68,2.78h-11.65v1.7h7.19v2.9h-4.99v1.7h9.27c0.48,0.01,0.87,0.4,0.87,0.88v4.37h2.74v-4.51
			c0-1.35-1.1-2.45-2.45-2.45h-2.69v-2.9h7.19v-1.7h-2.74C159.66,11.52,159.7,9.98,159.7,9.59z"/>
		<path class="st0" d="M233.08,16.97h-9.14v1.7h7.98c0.48,0.01,0.87,0.4,0.87,0.88v4.37h2.74v-4.51
			C235.53,18.06,234.43,16.97,233.08,16.97z"/>
		<polygon class="st0" points="140.78,5.47 138.04,5.47 138.04,19.27 140.78,19.27 140.78,11.69 143.41,11.69 143.41,9.98 
			140.78,9.98 		"/>
		<path class="st0" d="M135.92,10.66c0-1.1-0.46-2.1-1.21-2.87h1.5V6.1h-3.88V4.61h-2.74V6.1h-3.88v1.7h1.5
			c-0.75,0.77-1.21,1.77-1.21,2.87c0,2.42,2.22,4.38,4.96,4.38C133.7,15.05,135.92,13.08,135.92,10.66z M128.73,10.66
			c0-1.48,0.99-2.68,2.22-2.68c1.23,0,2.22,1.2,2.22,2.68c0,1.48-0.99,2.68-2.22,2.68C129.73,13.34,128.73,12.14,128.73,10.66z"/>
		<path class="st0" d="M131.17,21.34v-4.18h-2.74v4.32c0,1.35,1.1,2.45,2.45,2.45h10.32v-1.7h-9.15
			C131.56,22.22,131.17,21.83,131.17,21.34z"/>
		<path class="st0" d="M271.57,9.98V5.47h-2.74v7.99c-0.75,0.3-2.59,0.31-2.59,0.31l-4.91,0c-0.49,0-0.88-0.39-0.88-0.88V8.26
			c0.02-0.34,0.29-0.6,0.62-0.61h5.01v-1.7h-6.59c-0.98,0-1.78,0.8-1.78,1.78v5.3c0,1.35,1.09,2.45,2.45,2.45h6.08
			c0,0,1.83-0.01,2.59-0.31v4.11h2.74v-7.58h2.62V9.98H271.57z"/>
		<path class="st0" d="M261.95,21.34v-4.18h-2.74v4.32c0,1.35,1.09,2.45,2.45,2.45h10.32v-1.7h-9.15
			C262.35,22.22,261.95,21.83,261.95,21.34z"/>
		<path class="st0" d="M247.11,15.9c-3.17,0-5.73,1.91-5.73,4.27s2.57,4.27,5.73,4.27c3.16,0,5.73-1.91,5.73-4.27
			S250.27,15.9,247.11,15.9z M247.11,22.74c-1.66,0-2.99-1.15-2.99-2.57c0-1.42,1.34-2.57,2.99-2.57c1.65,0,2.99,1.15,2.99,2.57
			C250.1,21.59,248.76,22.74,247.11,22.74z"/>
		<path class="st0" d="M211.88,10.4c0-2.52-2.33-4.57-5.2-4.57c-2.87,0-5.2,2.04-5.2,4.57c0,2.52,2.33,4.57,5.2,4.57
			C209.55,14.97,211.88,12.93,211.88,10.4z M204.21,10.41c0-1.58,1.1-2.86,2.46-2.86c1.36,0,2.47,1.28,2.47,2.86
			s-1.1,2.86-2.47,2.86C205.31,13.27,204.21,11.99,204.21,10.41z"/>
		<path class="st0" d="M195.35,9.36h-2.71c-0.45-2.01-2.47-3.52-4.89-3.52c-2.75,0-4.99,1.96-4.99,4.38c0,2.42,2.23,4.37,4.99,4.37
			c2.42,0,4.44-1.52,4.89-3.52h2.71v4.14h2.74V5.47h-2.74V9.36z M187.75,12.89c-1.24,0-2.25-1.2-2.25-2.67
			c0-1.48,1.01-2.67,2.25-2.67c1.24,0,2.25,1.2,2.25,2.67C190,11.69,188.99,12.89,187.75,12.89z"/>
	</g>
</g>
</svg>
